<svg xmlns="http://www.w3.org/2000/svg" xmlns:xlink="http://www.w3.org/1999/xlink" width="24" height="24" viewBox="0 0 24 24">
    <defs>
        <path id="a" d="M12 2c-4.42 0-8 .5-8 4v9.5C4 17.43 5.57 19 7.5 19L6 20.5v.5h12v-.5L16.5 19c1.93 0 3.5-1.57 3.5-3.5V6c0-3.5-3.58-4-8-4zM7.5 17c-.83 0-1.5-.67-1.5-1.5S6.67 14 7.5 14s1.5.67 1.5 1.5S8.33 17 7.5 17zm3.5-6H6V6h5v5zm5.5 6c-.83 0-1.5-.67-1.5-1.5s.67-1.5 1.5-1.5 1.5.67 1.5 1.5-.67 1.5-1.5 1.5zm1.5-6h-5V6h5v5z"/>
        <path id="c" d="M0 0h50v50H0z"/>
    </defs>
    <g fill="none" fill-rule="evenodd">
        <mask id="b" fill="#808080">
            <use xlink:href="#a"/>
        </mask>
        <g mask="url(#b)">
            <use fill="#000" transform="translate(-13 -13)" xlink:href="#c"/>
        </g>
        <g fill="#000" fill-opacity=".54" mask="url(#b)">
            <path d="M0 0h24v24H0z"/>
        </g>
    </g>
</svg>
