<svg xmlns="http://www.w3.org/2000/svg" width="142" height="128" viewBox="0 0 142 128">
    <g fill="none" fill-rule="evenodd">
        <path fill="#FF8400" d="M137.428 91.194c2.922-.384 3.933.045 4.23-1.304.178-.819.11-2.559-.761-3.484-.614-.652-1.973-.602-3.449-.638-3.762-.087-2.942 5.814-.02 5.426"/>
        <path d="M0 127.81V.141h130.407V127.81H0z"/>
        <path fill="#FFF" d="M99.235 87.886c-7.762 1.476-3.695-9.527 1.797-10.722 7.358-1.601 3.114 9.788-1.797 10.722m-41.546.12c-7.424-.955 1.246-13.938 6.558-10.294 2.103 1.443-.461 11.079-6.558 10.294M55.01 14.99c3.405-8.544 7.878-12.441 12.454-10.438 18.525 8.111 14.13 38.547-25.18 50.25 3.173-12.65 10.146-33.34 12.726-39.812m74.114 59.227c-1.977-.804-2.536 2.435-4.392 6.696-3.24 7.439-7.727 7.067-6.44-.306.116-.67.909-2.935 1.214-4.093.502-1.91-1.757-3.043-2.674-2.117-.397.402-1.143 4.591-2.504 7.367-1.754 3.574-3.679 6.634-5.112 5.9-1.433-.732-.32-8.043-.123-9.167.204-1.141 3.35-15.658 3.937-17.712.593-2.076 1.412-4.908 1.413-4.91 0-.002.49-2.254-1.626-2.2-2.117.055-1.794 2.068-2.141 5.052-.151 1.298-2.336 11.366-3.736 16.39-.15.537-1.074.045-1.52-.256-2.599-1.75-5.74-.456-8.253 1.556-4.77 3.82-4.022 7.913-6.362 10.111-4.386 4.118-1.202-8.738-1.722-10.995-.428-1.856-2.805-1.681-4.275-.91-2.3 1.205-4.112 3.81-5.14 5.013-2.818 3.3-1.79-.441-1.363-1.962.317-1.132.446-3.045-.195-3.319-1.365-.583-2.089.32-2.939 2.396-2.042 4.982-2.872 7.14-5.033 10.32-.76 1.118-1.955 2.22-2.316-.166-.358-2.367.221-8.08-.274-10.141-.195-.812-1.761-2.785-4.23-2.693-6.26.236-11.452 5.994-16.749 13.052-.328.438.843-5.902.23-9.628-.399-2.413-2.18-3.19-2.61-3.307-2.513-.678-5.994 2.527-5.994 2.527-1.066.952-1.667 1.498-1.343.227 0 0 3.477-14.736 4.713-19.352 24.894-6.11 34.649-17.202 37.923-25.507 2.97-7.535 4.177-21.56-7.72-29.141-9.687-6.174-15.49-1.46-19.259 7.544-3.706 8.854-9.025 26.677-14.224 45.292-15.002 3.505-26.074 4.003-34.504 1.67-.005 0-1.628-1.352-2.69-.77-2.574 1.407.11 2.47.909 2.713.8.241 7.4 1.691 13.68 1.81 7.106.134 18.033-1.908 21.884-2.692-2.34 8.886-6.257 25.298-7.01 29.441-.32 1.758-.466 2.398 1.203 2.561 1.67.16 1.952-.383 2.933-4.011.484-1.793.575-3.8 1.974-5.219 1.831-1.855 5.351-3.082 5.995-2.956 1.4.27 1.196 2.097 1.305 4.715.115 2.758-.396 6.302-.396 6.302.05.138-.318 1.169.705 1.169 3.55 0 3.84-2.422 6.332-5.364 4.277-5.044-.111 3.035 4.83 4.813 3.95 1.42 5.942.298 8.397-1.867 2.48-2.186.206 2.156 3.822 2.46 3.617.303 4.777-3.044 6.4-6.269 1.462-2.909 1.225-1.397.08 2.886-.929 3.478.478 3.818 1.745 3.06.887-.53.554-3.73 5.298-8.795 5.013-5.351 4.826-1.731 4.505.559-1.01 7.21 2.754 10.428 5.624 7.524.495-.5 1.593-2.453 2.214-1.46.534.856 1.325 2.539 4.128 2.494 3.407-.05 6.41-2.302 7.35-4.326 1.475-3.172-.173 1.597 2.06 3.64 2.195 2.007 5.04-.38 6.339-2.075 1.257-1.641 1.878-2.694 2.221-2.488.2.12.315 1.288.777 2.83.813 2.716 5.175 4.029 7.683-1.233.833-1.748 1.168-1.515-.194 2.62-2.503 7.593-7.882 28.99-9.572 35.608-.401 1.571-.723 3.73 2.322 2.1 1.293-.69.326-3.04.272-3.165l-.001-.013c.072-.391 1.026-3.254 3.209-12.174 2.184-8.92 9.965-34.177 10.08-34.54.15-.48.744-2.382-1.07-3.12"/>
    </g>
</svg>
